<?xml version="1.0" encoding="UTF-8"?>
<!-- Generator: visioncortex VTracer 0.6.3 -->
<svg version="1.1" xmlns="http://www.w3.org/2000/svg" width="1280" height="1280">
<path d="M0 0 C1.25 -0.01 2.51 -0.01 3.8 -0.02 C5.18 -0.02 6.57 -0.02 7.95 -0.01 C9.41 -0.02 10.87 -0.02 12.34 -0.03 C16.3 -0.04 20.27 -0.04 24.24 -0.04 C27.56 -0.04 30.87 -0.04 34.19 -0.05 C42.02 -0.06 49.85 -0.06 57.69 -0.05 C65.75 -0.05 73.81 -0.06 81.88 -0.08 C88.81 -0.1 95.74 -0.11 102.68 -0.1 C106.82 -0.1 110.95 -0.1 115.09 -0.12 C118.98 -0.13 122.88 -0.13 126.77 -0.12 C128.19 -0.11 129.62 -0.12 131.04 -0.12 C139.16 -0.17 146.15 0.38 153.77 3.26 C155.16 3.72 155.16 3.72 156.58 4.18 C162.24 6.32 166.88 9.18 171.74 12.77 C173.7 14.29 173.7 14.29 175.77 15.26 C175.77 15.92 175.77 16.58 175.77 17.26 C176.35 17.51 176.93 17.76 177.52 18.01 C180.1 19.44 181.83 21.04 183.77 23.26 C183.77 23.92 183.77 24.58 183.77 25.26 C184.43 25.26 185.09 25.26 185.77 25.26 C187.51 27.48 189.09 29.67 190.65 32.01 C191.1 32.69 191.55 33.37 192.02 34.07 C195.75 39.87 197.94 45.62 199.77 52.26 C200.23 53.52 200.71 54.77 201.21 56.01 C203.02 60.73 204.44 65.57 205.93 70.4 C207.02 73.91 208.14 77.39 209.46 80.82 C210.78 84.27 211.77 87.71 212.77 91.26 C215.57 100.48 218.54 109.63 221.61 118.76 C223.4 124.1 225.08 129.46 226.71 134.85 C228.26 139.84 229.95 144.78 231.63 149.73 C233.02 153.88 234.3 158.02 235.4 162.26 C236.28 165.66 237.35 168.83 238.71 172.07 C240.85 177.21 242.29 182.46 243.77 187.82 C244.92 191.78 246.31 195.6 247.76 199.46 C250.22 206.26 252.4 213.16 253.77 220.26 C254.57 220.26 255.36 220.26 256.18 220.26 C342.63 220.21 429.08 220.16 515.54 220.13 C516.83 220.13 518.12 220.13 519.45 220.13 C546.82 220.12 574.2 220.12 601.57 220.11 C615.32 220.1 629.07 220.1 642.82 220.1 C644.9 220.1 646.97 220.1 649.05 220.09 C680.98 220.09 712.92 220.07 744.86 220.05 C745.55 220.05 746.23 220.05 746.94 220.05 C758.01 220.05 769.08 220.04 780.15 220.03 C826.46 220 872.76 219.99 919.06 219.98 C925.5 219.98 931.94 219.98 938.38 219.98 C940.28 219.98 940.28 219.98 942.22 219.98 C962.64 219.97 983.06 219.96 1003.47 219.94 C1023.99 219.92 1044.51 219.92 1065.03 219.92 C1077.22 219.92 1089.42 219.92 1101.61 219.9 C1109.76 219.89 1117.9 219.89 1126.04 219.9 C1130.69 219.9 1135.33 219.9 1139.97 219.89 C1144.2 219.87 1148.42 219.88 1152.65 219.89 C1154.16 219.89 1155.68 219.89 1157.2 219.88 C1168.88 219.82 1179.09 221.32 1189.77 226.26 C1191.39 226.89 1193.02 227.51 1194.65 228.14 C1199.61 230.1 1204.18 232.56 1208.77 235.26 C1208.77 235.92 1208.77 236.58 1208.77 237.26 C1209.56 237.57 1210.34 237.88 1211.15 238.2 C1213.77 239.26 1213.77 239.26 1215.77 240.26 C1215.77 240.92 1215.77 241.58 1215.77 242.26 C1216.33 242.5 1216.9 242.74 1217.47 242.98 C1220.29 244.55 1222.25 246.48 1224.52 248.76 C1225.32 249.55 1226.12 250.35 1226.94 251.17 C1228.77 253.26 1228.77 253.26 1228.77 255.26 C1229.43 255.26 1230.09 255.26 1230.77 255.26 C1234.48 259.26 1237.18 263.47 1239.77 268.26 C1240.47 269.45 1240.47 269.45 1241.18 270.66 C1246.55 280.01 1250.32 289.56 1251.77 300.26 C1252.1 300.59 1252.43 300.92 1252.77 301.26 C1252.92 303.79 1253.01 306.29 1253.04 308.82 C1253.06 309.59 1253.07 310.36 1253.08 311.16 C1253.48 341.67 1253.48 341.67 1247.77 356.26 C1246.95 358.76 1246.14 361.26 1245.33 363.76 C1244.71 365.6 1244.08 367.45 1243.45 369.29 C1242.19 372.96 1240.95 376.64 1239.71 380.32 C1239.45 381.08 1239.2 381.84 1238.94 382.62 C1236.99 388.47 1235.29 394.36 1233.63 400.3 C1232.76 403.31 1231.7 406.17 1230.55 409.08 C1229.49 412.04 1228.68 415.05 1227.83 418.07 C1226.37 423.29 1224.69 428.34 1222.78 433.41 C1221.23 437.81 1220.02 442.3 1218.8 446.8 C1217.86 449.95 1216.75 452.97 1215.58 456.04 C1214 460.38 1212.72 464.83 1211.4 469.26 C1210.78 471.3 1210.16 473.35 1209.54 475.39 C1209.24 476.39 1208.94 477.38 1208.63 478.41 C1207.44 482.34 1206.24 486.27 1205.02 490.2 C1204.66 491.38 1204.29 492.57 1203.91 493.79 C1203.11 496.24 1202.27 498.61 1201.34 501.01 C1199.44 506.02 1197.93 511.13 1196.4 516.26 C1195.78 518.3 1195.16 520.35 1194.54 522.39 C1194.24 523.39 1193.94 524.38 1193.63 525.41 C1192.44 529.34 1191.24 533.27 1190.02 537.2 C1189.66 538.38 1189.29 539.57 1188.91 540.79 C1188.12 543.21 1187.26 545.6 1186.35 547.98 C1184.38 553.16 1182.85 558.46 1181.27 563.76 C1179.31 570.36 1177.25 576.84 1174.77 583.26 C1174.24 584.78 1173.72 586.3 1173.21 587.82 C1172.98 588.51 1172.75 589.19 1172.52 589.89 C1171.76 592.31 1171.06 594.74 1170.37 597.18 C1167.95 605.57 1165.33 613.91 1162.77 622.26 C1162.52 623.09 1162.27 623.91 1162.01 624.76 C1161.35 626.91 1160.69 629.05 1160.02 631.2 C1159.66 632.38 1159.29 633.57 1158.91 634.79 C1158.11 637.24 1157.26 639.62 1156.34 642.02 C1154.45 646.98 1152.97 652.05 1151.46 657.14 C1149.28 664.4 1147.02 671.64 1144.58 678.82 C1142.46 685.09 1140.55 691.37 1138.77 697.75 C1136.13 707.04 1133.25 716.25 1129.77 725.26 C1127.59 731.27 1125.96 737.33 1124.52 743.56 C1123.77 746.26 1123.77 746.26 1122.77 748.26 C1121.53 750.75 1121 753.18 1120.4 755.89 C1119.23 760.71 1117.75 765.16 1115.82 769.73 C1113.98 774.18 1112.39 778.72 1110.77 783.26 C1110.11 783.26 1109.45 783.26 1108.77 783.26 C1108.71 783.94 1108.64 784.62 1108.58 785.32 C1107.5 789.27 1105.32 792.16 1102.9 795.39 C1102.17 796.37 1102.17 796.37 1101.42 797.37 C1089.12 813.55 1089.12 813.55 1080.77 816.26 C1080.77 816.92 1080.77 817.58 1080.77 818.26 C1071.95 825.8 1060.28 830.76 1049.27 834.14 C1048.63 834.34 1047.99 834.54 1047.34 834.75 C1033.42 838.73 1017.79 837.4 1003.47 837.39 C1001.11 837.39 998.74 837.39 996.38 837.39 C990.6 837.4 984.81 837.4 979.02 837.39 C972.08 837.39 965.14 837.39 958.21 837.39 C944.61 837.4 931.02 837.4 917.43 837.4 C905.53 837.39 893.64 837.39 881.74 837.39 C880.56 837.39 880.56 837.39 879.35 837.39 C876.14 837.4 872.93 837.4 869.72 837.4 C839.66 837.4 809.59 837.4 779.53 837.39 C752.83 837.39 726.14 837.39 699.44 837.39 C669.43 837.4 639.42 837.4 609.41 837.4 C606.2 837.4 603 837.39 599.8 837.39 C599.01 837.39 598.23 837.39 597.41 837.39 C585.53 837.39 573.64 837.39 561.76 837.4 C548.24 837.4 534.72 837.4 521.2 837.39 C514.3 837.39 507.41 837.39 500.51 837.39 C494.19 837.4 487.88 837.39 481.56 837.39 C479.28 837.39 477 837.39 474.72 837.39 C442.6 837.42 442.6 837.42 432.4 834.2 C431.69 833.98 430.99 833.77 430.27 833.54 C417.3 829.35 406.32 822.78 395.77 814.26 C395 813.72 394.23 813.18 393.44 812.62 C392.89 812.17 392.34 811.72 391.77 811.26 C391.77 810.6 391.77 809.94 391.77 809.26 C391.13 808.99 390.49 808.72 389.83 808.45 C387.77 807.26 387.77 807.26 386.77 804.26 C386.11 804.26 385.45 804.26 384.77 804.26 C382.83 802.18 382.83 802.18 380.65 799.45 C379.92 798.55 379.2 797.66 378.45 796.74 C376.77 794.26 376.77 794.26 376.77 791.26 C376.11 791.26 375.45 791.26 374.77 791.26 C366.43 775.29 366.43 775.29 364.42 767.56 C363.47 764.18 362.1 761.01 360.74 757.78 C359.8 755.33 359.06 752.87 358.36 750.35 C357.1 745.89 355.74 741.45 354.4 737.01 C354.11 736.04 353.81 735.06 353.51 734.06 C352.02 729.12 350.43 724.25 348.64 719.41 C347.27 715.7 346.12 712.07 345.27 708.2 C344.15 703.48 342.67 699.15 340.74 694.71 C339.79 692.3 339.06 689.87 338.36 687.37 C337.09 682.83 335.7 678.33 334.33 673.82 C334.03 672.82 333.73 671.83 333.43 670.8 C331.92 665.84 330.34 660.97 328.47 656.14 C327.26 652.89 326.28 649.57 325.27 646.26 C323.97 642.04 322.67 637.82 321.08 633.7 C320.03 630.95 319.18 628.24 318.38 625.41 C317.09 620.87 315.7 616.35 314.33 611.82 C314.03 610.82 313.73 609.83 313.43 608.8 C312.15 604.57 310.86 600.38 309.27 596.26 C306.93 590.21 305.22 583.96 303.38 577.75 C302.11 573.54 300.86 569.36 299.27 565.26 C296.93 559.21 295.22 552.96 293.38 546.75 C292.11 542.54 290.86 538.36 289.27 534.26 C286.93 528.21 285.22 521.96 283.38 515.75 C282.11 511.54 280.86 507.36 279.27 503.26 C276.93 497.21 275.22 490.96 273.38 484.75 C271.89 479.81 270.33 474.95 268.47 470.14 C267.26 466.89 266.28 463.58 265.27 460.26 C263.97 456.04 262.67 451.82 261.08 447.7 C259.77 444.25 258.78 440.81 257.77 437.26 C254.98 428.05 252.01 418.91 248.94 409.79 C247.08 404.23 245.34 398.64 243.64 393.03 C242.88 390.61 242.05 388.25 241.15 385.89 C239.81 382.37 238.79 378.88 237.77 375.26 C234.96 366 231.96 356.81 228.87 347.64 C227.21 342.7 225.79 337.73 224.48 332.69 C223.75 330.19 222.84 327.85 221.83 325.45 C219.69 320.32 218.25 315.06 216.77 309.71 C215.62 305.73 214.22 301.9 212.77 298.03 C210.05 290.5 207.91 282.78 205.77 275.07 C204.39 270.18 202.74 265.56 200.77 260.88 C199.13 256.58 198 252.14 196.77 247.71 C195.62 243.73 194.22 239.9 192.77 236.03 C190.05 228.5 187.91 220.78 185.77 213.07 C184.39 208.18 182.74 203.57 180.78 198.89 C179.11 194.52 177.95 190 176.7 185.5 C175.82 182.44 174.79 179.53 173.62 176.58 C172.38 173.18 171.34 169.72 170.27 166.26 C168.97 162.04 167.67 157.82 166.08 153.7 C164.77 150.25 163.78 146.81 162.77 143.26 C161.98 140.61 161.16 137.97 160.33 135.32 C160.11 134.62 159.89 133.91 159.67 133.19 C158.56 129.66 157.41 126.16 156.08 122.7 C154.77 119.25 153.78 115.81 152.77 112.26 C151.98 109.61 151.16 106.97 150.33 104.32 C150.11 103.62 149.89 102.91 149.67 102.19 C148.56 98.66 147.41 95.16 146.08 91.7 C144.38 87.24 143.16 82.68 141.9 78.07 C141.57 76.92 141.24 75.76 140.9 74.57 C140.44 72.93 140.44 72.93 139.97 71.25 C138.2 66.82 135.68 64.86 131.77 62.26 C129.2 61.97 129.2 61.97 126.25 62.03 C125.1 62.03 123.96 62.03 122.77 62.03 C121.51 62.03 120.25 62.04 118.95 62.05 C117.61 62.06 116.27 62.06 114.93 62.06 C112.04 62.06 109.15 62.07 106.26 62.08 C101.69 62.1 97.11 62.09 92.53 62.08 C79.51 62.07 66.49 62.06 53.47 62.11 C46.28 62.13 39.09 62.13 31.91 62.11 C28.1 62.09 24.31 62.09 20.51 62.12 C16.92 62.15 13.34 62.15 9.76 62.12 C7.83 62.12 5.91 62.14 3.99 62.17 C-4.9 62.06 -11.17 59.72 -18.23 54.26 C-26.94 45.02 -27.94 37.78 -27.67 25.44 C-27.26 18.2 -24.69 13.72 -19.63 8.67 C-18.1 7.32 -18.1 7.32 -15.23 5.26 C-14.55 4.7 -13.87 4.15 -13.17 3.57 C-8.88 0.67 -5.13 0.01 0 0 Z M273.77 281.26 C274.08 282.87 274.4 284.48 274.71 286.09 C274.89 286.99 275.06 287.89 275.24 288.81 C275.8 291.37 276.56 293.63 277.65 296.01 C279.86 301.23 281.33 306.57 282.84 312.03 C283.72 315.08 284.75 317.99 285.92 320.94 C287.17 324.34 288.21 327.8 289.27 331.26 C290.57 335.49 291.87 339.7 293.46 343.82 C294.78 347.27 295.77 350.71 296.77 354.26 C297.57 356.91 298.38 359.56 299.21 362.2 C299.54 363.25 299.54 363.25 299.87 364.33 C300.99 367.87 302.13 371.37 303.46 374.82 C304.78 378.27 305.77 381.71 306.77 385.26 C307.57 387.91 308.38 390.56 309.21 393.2 C309.54 394.25 309.54 394.25 309.87 395.33 C310.99 398.87 312.13 402.37 313.46 405.82 C314.51 408.57 315.36 411.28 316.16 414.11 C317.45 418.65 318.84 423.17 320.21 427.7 C320.51 428.7 320.81 429.69 321.12 430.72 C322.62 435.68 324.21 440.56 326.07 445.39 C327.28 448.63 328.27 451.95 329.27 455.26 C330.57 459.49 331.87 463.7 333.46 467.82 C334.51 470.57 335.36 473.28 336.16 476.11 C337.45 480.65 338.84 485.17 340.21 489.7 C340.51 490.7 340.81 491.69 341.12 492.72 C342.4 496.95 343.68 501.15 345.28 505.26 C347.61 511.31 349.32 517.56 351.17 523.77 C352.43 527.98 353.69 532.16 355.27 536.26 C357.61 542.31 359.32 548.56 361.17 554.77 C362.65 559.73 364.22 564.6 366.08 569.43 C367.22 572.45 368.14 575.54 369.08 578.64 C371.16 585.37 373.36 592.06 375.6 598.74 C377.47 604.29 379.2 609.88 380.9 615.5 C381.66 617.91 382.49 620.27 383.4 622.64 C384.47 625.45 385.35 628.22 386.16 631.12 C387.45 635.66 388.84 640.18 390.21 644.7 C390.51 645.7 390.81 646.69 391.12 647.72 C392.82 653.33 394.69 658.79 396.77 664.26 C397.54 666.61 398.29 668.96 399.02 671.32 C399.23 671.99 399.43 672.65 399.65 673.34 C400.95 677.56 402.23 681.79 403.51 686.03 C403.81 687.03 404.11 688.03 404.42 689.06 C405.01 691.01 405.6 692.97 406.18 694.93 C407.62 699.7 409.16 704.4 410.89 709.08 C412.27 712.8 413.42 716.44 414.27 720.32 C415.37 724.96 416.87 729.17 418.73 733.55 C420.41 737.92 421.55 742.44 422.74 746.96 C423.78 750.29 425.13 753.19 426.77 756.26 C427.44 757.59 428.1 758.93 428.77 760.26 C429.43 760.26 430.09 760.26 430.77 760.26 C431.04 760.9 431.31 761.54 431.58 762.2 C432.66 764.59 432.66 764.59 435.77 765.26 C435.77 765.92 435.77 766.58 435.77 767.26 C437.25 768.53 437.25 768.53 439.21 769.7 C439.85 770.11 440.49 770.52 441.14 770.94 C448.32 774.54 454.86 775.7 462.84 775.64 C463.82 775.65 464.8 775.65 465.81 775.66 C469.09 775.67 472.36 775.66 475.64 775.66 C478.02 775.66 480.39 775.67 482.77 775.67 C487.93 775.69 493.09 775.69 498.25 775.69 C505.93 775.68 513.6 775.69 521.28 775.7 C535.79 775.73 550.3 775.73 564.8 775.73 C576.01 775.73 587.21 775.73 598.41 775.74 C600.02 775.74 601.63 775.74 603.24 775.74 C604.04 775.74 604.84 775.74 605.67 775.74 C606.47 775.75 607.27 775.75 608.09 775.75 C609.3 775.75 609.3 775.75 610.52 775.75 C633.08 775.76 655.64 775.77 678.19 775.77 C679.04 775.77 679.89 775.77 680.77 775.77 C685.08 775.76 689.39 775.76 693.7 775.76 C694.55 775.76 695.41 775.76 696.29 775.76 C698.02 775.76 699.75 775.76 701.48 775.76 C728.41 775.76 755.34 775.77 782.27 775.8 C812.53 775.84 842.79 775.86 873.05 775.85 C876.27 775.85 879.5 775.85 882.73 775.85 C883.52 775.85 884.32 775.85 885.13 775.85 C897.12 775.85 909.11 775.86 921.1 775.88 C934.74 775.9 948.38 775.91 962.02 775.89 C969.65 775.88 977.28 775.88 984.91 775.9 C990.61 775.92 996.31 775.91 1002.01 775.89 C1004.31 775.88 1006.61 775.89 1008.92 775.9 C1029.08 776.07 1029.08 776.07 1046.15 766.07 C1047.27 765.06 1047.27 765.06 1048.42 764.03 C1054.5 756.87 1057.79 749.24 1060.27 740.26 C1060.86 738.23 1061.45 736.2 1062.04 734.17 C1062.33 733.17 1062.62 732.18 1062.91 731.15 C1064.16 726.96 1065.55 722.83 1066.96 718.7 C1069.15 712.25 1071.09 705.78 1072.91 699.22 C1073.6 696.85 1074.36 694.61 1075.27 692.32 C1076.75 688.6 1077.72 684.76 1078.71 680.89 C1080.05 675.64 1081.71 670.72 1083.83 665.74 C1085.29 661.9 1086.16 657.93 1087.06 653.92 C1087.72 651.45 1088.63 649.54 1089.77 647.26 C1090.53 644.46 1091.16 641.65 1091.79 638.82 C1092.62 635.82 1093.57 633 1094.65 630.09 C1096.79 624.32 1098.59 618.47 1100.33 612.57 C1103.57 601.68 1103.57 601.68 1105.37 596.98 C1106.68 593.49 1107.73 590.04 1108.71 586.45 C1110.17 581.23 1111.86 576.19 1113.77 571.12 C1115.32 566.71 1116.52 562.22 1117.74 557.72 C1118.68 554.57 1119.79 551.55 1120.96 548.49 C1122.54 544.14 1123.82 539.69 1125.15 535.26 C1125.76 533.22 1126.38 531.17 1127 529.13 C1127.45 527.64 1127.45 527.64 1127.91 526.11 C1129.1 522.18 1130.3 518.25 1131.52 514.32 C1131.89 513.14 1132.25 511.95 1132.63 510.73 C1133.43 508.31 1134.28 505.92 1135.19 503.54 C1137.16 498.36 1138.7 493.06 1140.27 487.76 C1142.23 481.16 1144.29 474.68 1146.77 468.26 C1147.3 466.74 1147.83 465.22 1148.33 463.7 C1148.68 462.68 1148.68 462.68 1149.03 461.63 C1149.79 459.21 1150.48 456.78 1151.17 454.34 C1153.59 445.95 1156.21 437.61 1158.77 429.26 C1159.02 428.44 1159.28 427.61 1159.54 426.76 C1160.2 424.61 1160.86 422.47 1161.52 420.32 C1161.89 419.14 1162.25 417.95 1162.63 416.73 C1163.43 414.29 1164.28 411.91 1165.2 409.51 C1167.1 404.5 1168.61 399.39 1170.15 394.26 C1170.76 392.22 1171.38 390.17 1172 388.13 C1172.3 387.14 1172.6 386.14 1172.91 385.11 C1174.1 381.18 1175.3 377.25 1176.52 373.32 C1177.07 371.55 1177.07 371.55 1177.63 369.73 C1178.43 367.31 1179.29 364.91 1180.19 362.53 C1182.14 357.41 1183.69 352.19 1185.27 346.95 C1185.57 345.98 1185.86 345.01 1186.17 344.01 C1187.65 339.13 1189.09 334.23 1190.47 329.32 C1190.84 328.03 1190.84 328.03 1191.21 326.71 C1193.28 317.73 1191.5 308.86 1186.9 301.01 C1180.18 290.54 1173.47 286.06 1161.77 282.26 C1160.78 281.93 1159.79 281.6 1158.77 281.26 C1156.76 281.17 1154.74 281.14 1152.72 281.14 C1151.45 281.13 1150.17 281.13 1148.86 281.13 C1147.43 281.13 1146.01 281.13 1144.58 281.14 C1143.07 281.14 1141.56 281.14 1140.04 281.13 C1135.86 281.13 1131.67 281.13 1127.48 281.14 C1122.94 281.14 1118.4 281.14 1113.85 281.14 C1105.88 281.14 1097.91 281.14 1089.94 281.14 C1078.08 281.15 1066.23 281.15 1054.37 281.15 C1034.43 281.15 1014.49 281.15 994.56 281.15 C974.81 281.16 955.06 281.16 935.31 281.17 C933.47 281.17 933.47 281.17 931.59 281.17 C925.36 281.17 919.13 281.17 912.9 281.17 C868.74 281.17 824.59 281.18 780.43 281.19 C769.73 281.19 759.02 281.19 748.31 281.19 C747.65 281.19 746.99 281.19 746.3 281.19 C715.44 281.2 684.58 281.2 653.72 281.21 C651.72 281.21 649.72 281.21 647.71 281.21 C634.44 281.21 621.17 281.21 607.89 281.21 C580.85 281.21 553.81 281.22 526.76 281.22 C525.52 281.22 524.28 281.22 523 281.22 C439.92 281.23 356.85 281.24 273.77 281.26 Z " fill="#000000" transform="translate(27.228561401367188,76.73930358886719)"/>
<path d="M0 0 C0.73 0.2 1.46 0.39 2.21 0.6 C6.65 1.87 10.64 3.55 14.72 5.71 C16.39 6.57 18.13 7.29 19.88 8 C23.86 9.79 27.46 11.93 31.17 14.22 C33.24 15.47 35.32 16.58 37.5 17.62 C37.5 18.28 37.5 18.95 37.5 19.62 C38.22 19.87 38.94 20.12 39.69 20.38 C42.78 21.75 45.01 23.35 47.5 25.62 C47.5 26.28 47.5 26.95 47.5 27.62 C48.04 27.83 48.57 28.04 49.12 28.25 C52.42 30.16 55.09 32.67 57.5 35.62 C57.5 36.28 57.5 36.95 57.5 37.62 C58.49 37.96 59.48 38.28 60.5 38.62 C69.44 48.85 76.9 60.87 81.5 73.62 C82.2 75.36 82.91 77.09 83.62 78.81 C86.12 85.08 87.69 90.99 88.25 97.71 C88.4 99.71 88.4 99.71 89.5 101.62 C94.04 129.85 87.04 156.55 74.5 181.62 C73.84 181.62 73.18 181.62 72.5 181.62 C72.41 182.17 72.31 182.71 72.21 183.27 C71.29 186.32 69.78 188.68 68.06 191.38 C67.45 192.36 66.83 193.34 66.19 194.36 C65.63 195.11 65.08 195.85 64.5 196.62 C63.84 196.62 63.18 196.62 62.5 196.62 C62.26 197.18 62.01 197.74 61.76 198.32 C57.83 205.51 50.92 211.64 44.5 216.62 C43.84 216.62 43.18 216.62 42.5 216.62 C42.5 217.29 42.5 217.94 42.5 218.62 C41.07 219.91 41.07 219.91 39.19 221.25 C38.57 221.7 37.96 222.14 37.32 222.6 C35.5 223.62 35.5 223.62 32.5 223.62 C32.5 224.29 32.5 224.94 32.5 225.62 C10.02 238 10.02 238 -0.24 240.12 C-1.87 240.48 -3.48 240.9 -5.09 241.35 C-14 243.73 -22.43 244.09 -31.57 244.02 C-34 244 -36.42 244.02 -38.84 244.04 C-48.12 244.05 -56.52 243.23 -65.5 240.62 C-67.4 240.12 -67.4 240.12 -69.33 239.6 C-74.53 238.01 -79.51 236.4 -84.29 233.8 C-86.06 232.86 -87.86 231.98 -89.68 231.13 C-98.13 227.12 -105.16 222.49 -112.5 216.62 C-113.27 216.08 -114.04 215.54 -114.84 214.98 C-115.39 214.54 -115.93 214.09 -116.5 213.62 C-116.5 212.96 -116.5 212.31 -116.5 211.62 C-117.04 211.42 -117.57 211.21 -118.12 211 C-121.42 209.09 -124.09 206.58 -126.5 203.62 C-126.5 202.96 -126.5 202.31 -126.5 201.62 C-127.16 201.62 -127.82 201.62 -128.5 201.62 C-131.5 198.16 -131.5 198.16 -131.5 195.62 C-132.16 195.62 -132.82 195.62 -133.5 195.62 C-136.5 191.24 -136.5 191.24 -136.5 188.62 C-137.16 188.62 -137.82 188.62 -138.5 188.62 C-139.08 187.45 -139.08 187.45 -139.67 186.25 C-142.94 179.57 -142.94 179.57 -146.62 173.12 C-148.81 169.05 -150.18 164.97 -151.56 160.58 C-152.11 158.87 -152.68 157.16 -153.31 155.48 C-160.88 135.45 -160.21 112.2 -155.5 91.62 C-155 91.13 -155 91.13 -154.5 90.62 C-154.4 89.63 -154.29 88.64 -154.19 87.62 C-153.68 83.72 -152.27 80.56 -150.6 77.01 C-149.48 74.58 -148.52 72.13 -147.56 69.62 C-145.61 64.7 -143.2 60.18 -140.5 55.62 C-139.83 54.47 -139.83 54.47 -139.14 53.29 C-136.62 49.07 -136.62 49.07 -135.5 47.62 C-134.84 47.62 -134.18 47.62 -133.5 47.62 C-133.5 46.63 -133.5 45.64 -133.5 44.62 C-132.84 44.62 -132.18 44.62 -131.5 44.62 C-131.24 44.04 -130.97 43.46 -130.7 42.86 C-125.86 33.84 -116.11 25.03 -107.5 19.62 C-106.84 19.62 -106.18 19.62 -105.5 19.62 C-105.5 18.97 -105.5 18.3 -105.5 17.62 C-103.23 16.28 -100.96 14.95 -98.69 13.62 C-98.04 13.24 -97.4 12.86 -96.74 12.47 C-91.84 9.62 -91.84 9.62 -88.5 9.62 C-88.5 8.97 -88.5 8.3 -88.5 7.62 C-87.45 7.24 -87.45 7.24 -86.38 6.86 C-85.43 6.51 -84.48 6.17 -83.5 5.81 C-82.49 5.45 -81.48 5.08 -80.44 4.7 C-78.11 3.85 -75.81 2.97 -73.5 2.06 C-50.08 -6.63 -23.94 -6.49 0 0 Z M-80.5 78.62 C-80.5 79.29 -80.5 79.94 -80.5 80.62 C-81.16 80.62 -81.82 80.62 -82.5 80.62 C-93.9 94.49 -96.56 111.2 -95.5 128.62 C-93.65 144.01 -86.1 157.35 -74.5 167.62 C-73.84 167.62 -73.18 167.62 -72.5 167.62 C-72.5 168.29 -72.5 168.94 -72.5 169.62 C-53.33 180.37 -37.27 185.14 -15.5 179.62 C-5.51 176.53 4.6 170.66 11.5 162.62 C11.5 161.96 11.5 161.31 11.5 160.62 C12.16 160.62 12.82 160.62 13.5 160.62 C21.11 151.15 27.25 139.97 27.5 127.62 C27.54 125.98 27.54 125.98 27.58 124.31 C27.62 120.74 27.59 117.19 27.5 113.62 C27.47 112.29 27.47 112.29 27.45 110.93 C26.66 96.87 17.75 82.9 7.5 73.62 C6.84 73.62 6.18 73.62 5.5 73.62 C5.5 72.96 5.5 72.31 5.5 71.62 C2.94 69.33 2.02 68.62 -1.5 68.62 C-1.5 67.96 -1.5 67.31 -1.5 66.62 C-26.27 49.48 -60.98 57.86 -80.5 78.62 Z " fill="#000000" transform="translate(550.5,959.375)"/>
<path d="M0 0 C1.13 0.56 2.26 1.13 3.42 1.71 C4.27 2.14 5.12 2.56 6 3 C6 3.66 6 4.32 6 5 C6.54 5.07 7.07 5.15 7.62 5.23 C10.95 6.31 13.24 8.24 16 10.38 C17.03 11.17 18.06 11.96 19.12 12.77 C20.07 13.51 21.02 14.24 22 15 C23.18 15.82 23.18 15.82 24.38 16.66 C25.18 17.33 25.18 17.33 26 18 C26 18.66 26 19.32 26 20 C26.99 20.33 27.98 20.66 29 21 C29 21.66 29 22.32 29 23 C29.66 23 30.32 23 31 23 C31 23.66 31 24.32 31 25 C31.99 25.33 32.98 25.66 34 26 C34 26.66 34 27.32 34 28 C34.66 28 35.32 28 36 28 C37.64 29.84 39.14 31.67 40.62 33.62 C41.07 34.21 41.51 34.79 41.97 35.39 C51.78 48.55 58.48 63.26 63 79 C63.26 79.91 63.53 80.83 63.8 81.77 C66.24 91.06 66.55 99.96 66.5 109.5 C66.5 110.29 66.5 111.08 66.5 111.9 C66.45 124.81 65.22 136.71 61 149 C60.68 149.97 60.68 149.97 60.35 150.95 C57.88 158.27 54.62 165.18 51 172 C50.34 172 49.68 172 49 172 C48.89 172.57 48.77 173.14 48.65 173.73 C47.94 176.21 46.93 178.06 45.56 180.25 C45.13 180.96 44.7 181.66 44.25 182.39 C43.63 183.19 43.63 183.19 43 184 C42.34 184 41.68 184 41 184 C40.68 185.04 40.68 185.04 40.35 186.1 C38.64 189.78 36.19 192.46 33.44 195.38 C32.9 195.95 32.37 196.52 31.82 197.1 C27.61 201.52 23.22 205.78 18 209 C17.34 209 16.68 209 16 209 C16 209.66 16 210.32 16 211 C14.14 212.51 14.14 212.51 11.69 214.12 C10.89 214.66 10.09 215.2 9.26 215.76 C7 217 7 217 4 217 C4 217.66 4 218.32 4 219 C-7.08 224.59 -17.96 228.99 -30 232 C-30.68 232.17 -31.36 232.35 -32.05 232.52 C-37.32 233.79 -42.26 234.32 -47.66 234.34 C-48.46 234.34 -49.25 234.35 -50.07 234.36 C-51.75 234.37 -53.42 234.37 -55.09 234.37 C-57.6 234.37 -60.11 234.41 -62.61 234.45 C-73.11 234.52 -82 233.22 -92 230 C-94.27 229.35 -96.54 228.7 -98.81 228.06 C-112.71 223.67 -126.81 215.36 -138 206 C-138 205.34 -138 204.68 -138 204 C-138.86 203.63 -138.86 203.63 -139.73 203.25 C-142.35 201.81 -144.15 200.12 -146.25 198 C-146.96 197.3 -147.66 196.6 -148.39 195.88 C-150 194 -150 194 -150 192 C-150.99 191.67 -151.98 191.34 -153 191 C-154.39 189.44 -154.39 189.44 -155.69 187.56 C-156.12 186.95 -156.56 186.33 -157.01 185.69 C-158 184 -158 184 -158 182 C-158.66 182 -159.32 182 -160 182 C-160 181.01 -160 180.02 -160 179 C-160.66 179 -161.32 179 -162 179 C-166.42 171.65 -170.49 164.56 -173.2 156.38 C-174.03 153.78 -174.03 153.78 -175.56 150.5 C-186.21 124.57 -184.5 91.65 -174 66 C-173.57 64.91 -173.13 63.83 -172.69 62.71 C-170.09 56.4 -167.42 50.6 -163.45 45.04 C-161.49 42.27 -159.79 39.36 -158.08 36.43 C-157.72 35.96 -157.37 35.49 -157 35 C-156.34 35 -155.68 35 -155 35 C-154.82 34.33 -154.64 33.67 -154.46 32.98 C-152.33 28.63 -149.11 25.68 -145.69 22.31 C-145.02 21.64 -144.36 20.96 -143.67 20.26 C-137.61 14.24 -137.61 14.24 -133 13 C-133 12.34 -133 11.68 -133 11 C-123.12 3.43 -112.7 -1.97 -101 -6 C-99.62 -6.54 -98.25 -7.08 -96.88 -7.62 C-93.25 -9.01 -89.59 -9.83 -85.79 -10.57 C-83.99 -10.84 -83.99 -10.84 -83 -12 C-54.26 -17.19 -25.98 -13.24 0 0 Z M-105 70 C-118.34 86.33 -120.69 103.36 -119 124 C-117.11 136.39 -107.94 150.43 -98 158 C-97.34 158 -96.68 158 -96 158 C-96 158.66 -96 159.32 -96 160 C-88.23 164.71 -80.97 169.03 -72 171 C-71.16 171.2 -70.31 171.4 -69.45 171.61 C-54.58 174.93 -40.62 171.42 -27 165 C-27 164.34 -27 163.68 -27 163 C-26.46 162.92 -25.93 162.84 -25.38 162.75 C-22.13 161.72 -19.71 160.03 -17 158 C-17 157.34 -17 156.68 -17 156 C-16.04 155.6 -16.04 155.6 -15.06 155.19 C-12.67 154.11 -12.67 154.11 -12 151 C-11.34 151 -10.68 151 -10 151 C-8.64 149.55 -8.64 149.55 -7.38 147.69 C-6.71 146.77 -6.71 146.77 -6.02 145.82 C-4.76 143.91 -4.76 143.91 -5 141 C-4.34 141 -3.68 141 -3 141 C0.29 135.36 1.59 129.33 3 123 C3.19 122.19 3.38 121.38 3.57 120.54 C6.08 105.57 3.24 89.36 -5.19 76.72 C-8.46 72.2 -11.83 67.74 -16 64 C-16.66 64 -17.32 64 -18 64 C-18 63.34 -18 62.68 -18 62 C-20.56 59.7 -21.48 59 -25 59 C-25 58.34 -25 57.68 -25 57 C-26.64 56.22 -28.29 55.45 -29.94 54.69 C-30.85 54.26 -31.77 53.83 -32.71 53.39 C-33.8 52.93 -34.88 52.47 -36 52 C-36.64 51.73 -37.29 51.46 -37.95 51.18 C-44.44 48.7 -50.54 48.55 -57.44 48.62 C-59.04 48.61 -59.04 48.61 -60.67 48.59 C-78.58 48.66 -92.99 57.21 -105 70 Z " fill="#000000" transform="translate(1127,969)"/>
</svg>
