<?xml version="1.0" encoding="UTF-8"?>
<!DOCTYPE svg PUBLIC "-//W3C//DTD SVG 1.1//EN" "http://www.w3.org/Graphics/SVG/1.1/DTD/svg11.dtd">
<svg xmlns="http://www.w3.org/2000/svg" version="1.1" width="512px" height="512px" style="shape-rendering:geometricPrecision; text-rendering:geometricPrecision; image-rendering:optimizeQuality; fill-rule:evenodd; clip-rule:evenodd" xmlns:xlink="http://www.w3.org/1999/xlink">
<g><path style="opacity:0.969" fill="#000000" d="M 11.5,-0.5 C 25.1667,-0.5 38.8333,-0.5 52.5,-0.5C 74.076,8.23894 86.9093,24.2389 91,47.5C 92.5485,58.1729 94.0485,68.8396 95.5,79.5C 219.5,79.3333 343.5,79.5 467.5,80C 494.868,86.0326 509.201,103.033 510.5,131C 502.86,188.479 495.027,245.979 487,303.5C 479.223,330.608 461.39,346.441 433.5,351C 332.834,351.5 232.167,351.667 131.5,351.5C 132.665,359.487 133.832,367.487 135,375.5C 138.5,388.333 146.667,396.5 159.5,400C 263.167,400.333 366.833,400.667 470.5,401C 480.666,404.158 484.5,410.991 482,421.5C 480.073,426.428 476.573,429.594 471.5,431C 457.488,431.167 443.488,431.667 429.5,432.5C 440.97,464.935 431.97,489.768 402.5,507C 398.107,508.671 393.774,510.171 389.5,511.5C 382.5,511.5 375.5,511.5 368.5,511.5C 334.368,501.149 319.868,478.149 325,442.5C 326.068,439.129 327.235,435.796 328.5,432.5C 303.167,431.167 277.833,431.167 252.5,432.5C 261.188,453.953 258.688,473.953 245,492.5C 236.131,502.346 225.298,508.679 212.5,511.5C 205.5,511.5 198.5,511.5 191.5,511.5C 158.101,501.056 143.601,478.389 148,443.5C 148.809,439.24 150.309,435.24 152.5,431.5C 126.477,423.312 110.31,405.979 104,379.5C 89.5197,270.138 74.853,160.805 60,51.5C 57.8607,42.0451 52.6941,34.8784 44.5,30C 33.5,29.6667 22.5,29.3333 11.5,29C 3.08507,24.6524 0.251735,17.8191 3,8.5C 4.68784,4.31481 7.52117,1.31481 11.5,-0.5 Z M 99.5,110.5 C 138.833,110.5 178.167,110.5 217.5,110.5C 219.015,139.89 221.015,169.224 223.5,198.5C 186.173,199.5 148.839,199.833 111.5,199.5C 107.418,169.848 103.418,140.181 99.5,110.5 Z M 248.5,110.5 C 280.167,110.5 311.833,110.5 343.5,110.5C 341.765,140.192 339.765,169.859 337.5,199.5C 309.833,199.5 282.167,199.5 254.5,199.5C 252.235,169.859 250.235,140.192 248.5,110.5 Z M 374.5,110.5 C 404.502,110.333 434.502,110.5 464.5,111C 473.644,113.779 478.644,119.946 479.5,129.5C 476.303,152.714 472.969,175.881 469.5,199C 435.835,199.5 402.168,199.667 368.5,199.5C 370.853,169.871 372.853,140.204 374.5,110.5 Z M 115.5,230.5 C 152.167,230.5 188.833,230.5 225.5,230.5C 227.102,260.534 229.102,290.534 231.5,320.5C 196.833,320.5 162.167,320.5 127.5,320.5C 123.5,290.5 119.5,260.5 115.5,230.5 Z M 256.5,230.5 C 282.833,230.5 309.167,230.5 335.5,230.5C 333.721,260.519 331.721,290.519 329.5,320.5C 307.167,320.5 284.833,320.5 262.5,320.5C 260.279,290.519 258.279,260.519 256.5,230.5 Z M 366.5,230.5 C 399.5,230.5 432.5,230.5 465.5,230.5C 462.914,252.19 460.08,273.857 457,295.5C 453.28,309.221 444.447,317.388 430.5,320C 407.169,320.5 383.836,320.667 360.5,320.5C 362.809,290.528 364.809,260.528 366.5,230.5 Z M 198.5,431.5 C 218.491,432.32 227.658,442.654 226,462.5C 219.228,478.965 207.394,484.132 190.5,478C 177.21,468.674 174.377,456.841 182,442.5C 186.318,436.933 191.818,433.267 198.5,431.5 Z M 375.5,431.5 C 394.963,432.128 404.13,442.128 403,461.5C 395.78,479.789 383.28,484.956 365.5,477C 353.126,466.424 351.292,454.257 360,440.5C 364.274,435.785 369.441,432.785 375.5,431.5 Z"/></g>
</svg>
